<svg viewBox="0 0 1058 785" fill="none" xmlns="http://www.w3.org/2000/svg">
        <g id="bike 1">
            <g id="front-wheel">
                <path id="Vector"
                    d="M682.37 717.03L676.11 619.13L675.98 618.92L669.66 621.12L640.57 705.93L594.32 673.13L668.01 619.72L668.08 619.51L668.5 619.36L673.25 615.91L596.01 572.6L577.08 593.4L580.08 612.9L668.88 614.48V616.48L578.4 614.86L575 592.75L600.89 564.3L639.61 519.13L640.3 521L648.5 512L679.04 517.47V516.26L681.04 516.32V517.83L726.4 525.95L684.07 610.6L677.9 615.07V615.57V616.13L775.71 582.05L764.1 673.26L681.1 620.39L678.18 618.75L727.12 697.64L682.37 717.03ZM678.37 622.69L684.22 714.07L724.27 696.69L678.37 622.69ZM597.8 673.13L639.59 702.76L666.93 623.02L597.8 673.13ZM680.12 617.47L682.21 618.64L762.56 669.84L773.36 584.97L680.12 617.47ZM673.02 610.27L675.53 614.32L675.97 614L678.97 519.47L649.23 514.13L641.07 523.13L673.02 610.27ZM597.63 571.22L672.47 613.22L671.17 611.09L639.59 524.82L602.39 565.7L597.63 571.22ZM681 519.83L678 612.52L682.52 609.24L723.43 527.42L681 519.83Z"
                    fill="#535461" />
                <path id="Vector_2"
                    d="M676.757 501C666.144 500.988 655.578 502.415 645.347 505.24C640.071 506.695 634.904 508.523 629.887 510.71C603.157 522.297 581.674 543.387 569.594 569.898C557.514 596.41 555.697 626.459 564.492 654.233C573.287 682.008 592.071 705.533 617.209 720.259C642.348 734.984 672.054 739.863 700.582 733.952C729.109 728.04 754.431 711.759 771.648 688.257C788.865 664.755 796.754 635.702 793.789 606.72C790.823 577.738 777.215 550.885 755.595 531.356C733.975 511.828 705.881 501.012 676.747 501H676.757ZM676.357 707.09C656.076 707.082 636.408 700.137 620.62 687.407C604.831 674.678 593.872 656.931 589.562 637.113C585.252 617.295 587.851 596.599 596.928 578.463C606.004 560.326 621.011 545.84 639.457 537.41C644.149 535.262 649.021 533.532 654.017 532.24C666.229 529.07 678.977 528.537 691.411 530.678C703.845 532.818 715.681 537.581 726.13 544.652C736.58 551.722 745.404 560.937 752.015 571.683C758.627 582.429 762.873 594.46 764.473 606.975C766.073 619.49 764.989 632.202 761.293 644.265C757.598 656.329 751.375 667.467 743.04 676.939C734.704 686.41 724.447 693.998 712.951 699.196C701.455 704.395 688.984 707.086 676.367 707.09H676.357Z"
                    fill="#535461" />
            </g>
            <g id="back-wheel">
                <path id="Vector_3"
                    d="M255.23 716.99L248.96 619.05L248.83 618.84L242.51 621.04L213.43 705.89L167.18 673.1L240.85 619.69L240.92 619.48L241.34 619.33L246.09 615.88L168.85 572.57L149.93 593.37L152.93 612.87L241.75 614.49V616.49L151.27 614.87L147.85 592.73L173.75 564.27L212.5 519.07L213.19 520.94L221.39 511.94L251.85 517.4V516.19L253.85 516.25V517.76L299.21 525.88L256.92 610.49L250.75 614.96V615.46V616.02L348.55 581.94L336.94 673.15L253.94 620.28L251.02 618.64L299.96 697.52L255.23 716.99ZM251.23 622.65L257.08 714.03L297.13 696.65L251.23 622.65ZM170.65 673.08L212.44 702.71L239.78 622.97L170.65 673.08ZM252.97 617.42L255.06 618.59L335.41 669.79L346.21 584.92L252.97 617.42ZM245.87 610.22L248.38 614.27L248.82 613.95L251.82 519.42L222.08 514.1L213.92 523.1L245.87 610.22ZM170.45 571.16L245.29 613.16L243.99 611.03L212.41 524.76L175.22 565.63L170.45 571.16ZM253.85 519.77L250.85 612.49L255.37 609.21L296.28 527.39L253.85 519.77Z"
                    fill="#535461" />
                <path id="Vector_4"
                    d="M364.92 589.95C360.909 572.131 352.79 555.495 341.21 541.37C336.911 536.121 332.171 531.25 327.04 526.81C307.314 509.779 282.491 499.779 256.467 498.381C230.443 496.983 204.692 504.265 183.254 519.085C161.816 533.904 145.906 555.422 138.02 580.262C130.134 605.102 130.719 631.857 139.683 656.328C148.647 680.799 165.482 701.601 187.547 715.47C209.612 729.339 235.657 735.488 261.595 732.954C287.533 730.42 311.895 719.345 330.858 701.468C349.822 683.591 362.312 659.923 366.37 634.18C367.314 628.119 367.789 621.994 367.79 615.86C367.797 607.144 366.834 598.454 364.92 589.95ZM249.73 704.3C231.498 704.281 213.714 698.647 198.797 688.164C183.879 677.682 172.552 662.859 166.356 645.712C160.16 628.565 159.395 609.926 164.165 592.329C168.935 574.732 179.009 559.031 193.018 547.361C207.026 535.692 224.288 528.619 242.457 527.106C260.627 525.593 278.821 529.712 294.567 538.904C310.312 548.096 322.845 561.914 330.46 578.48C338.076 595.045 340.405 613.554 337.13 631.49C333.38 651.933 322.58 670.414 306.611 683.718C290.642 697.021 270.514 704.304 249.73 704.3V704.3Z"
                    fill="#535461" />
            </g>
            <g id="man">
                <path id="Vector_5" d="M387 554.303L344.293 512.159L330.947 525.683L373.654 567.827L387 554.303Z"
                    fill="#ff4d63" />
                <path id="Vector_6" opacity="0.1"
                    d="M387 554.303L344.293 512.159L330.947 525.683L373.654 567.827L387 554.303Z" fill="black" />
                <path id="Vector_7"
                    d="M354.48 491.99C354.48 491.99 379.27 478.91 388.85 470.49C394.617 465.444 400.818 460.917 407.38 456.96L438.48 438.03L503.48 433.03L506.48 444.03C506.48 444.03 511.48 460.03 461.48 474.03C411.48 488.03 386.48 510.03 386.48 510.03C386.48 510.03 354.48 520.99 354.48 491.99Z"
                    fill="#DB8B8B" />
                <path id="Vector_8" opacity="0.1"
                    d="M389.13 507.86C387.36 509.21 386.48 509.99 386.48 509.99C386.48 509.99 354.48 520.99 354.48 491.99C354.48 491.99 356.03 491.17 358.48 489.8C360.955 493.831 364.423 497.16 368.551 499.469C372.679 501.778 377.33 502.99 382.06 502.99H385.45L389.13 507.86Z"
                    fill="black" />
                <path id="Vector_9" opacity="0.05"
                    d="M505.54 449.55C502.76 455.44 493.17 465.12 461.48 473.99C420.87 485.36 396.75 501.99 389.13 507.86C387.36 509.21 386.48 509.99 386.48 509.99C386.48 509.99 354.48 520.99 354.48 491.99C354.48 491.99 356.03 491.17 358.48 489.8C365.91 485.73 381.64 476.8 388.82 470.45C394.586 465.403 400.787 460.875 407.35 456.92L438.45 437.99L450.03 437.1L503.45 432.99L506.45 443.99C506.45 443.99 507.15 446.14 505.54 449.55Z"
                    fill="black" />
                <path id="Vector_10"
                    d="M354.98 485.49L328.48 502.99L406.08 567.99C406.08 567.99 417.48 560.99 411.48 552.99C411.48 552.99 391.48 535.99 390.48 511.99L384.48 503.99H381.09C375.358 503.991 369.767 502.211 365.089 498.897C360.412 495.583 356.88 490.898 354.98 485.49V485.49Z"
                    fill="#ABB1D1" />
                <path id="Vector_11" opacity="0.1"
                    d="M505.54 449.55C489.54 441.82 450.48 440.99 450.48 440.99L450.06 437.1L503.48 432.99L506.48 443.99C506.48 443.99 507.15 446.14 505.54 449.55Z"
                    fill="black" />
                <path id="Vector_12"
                    d="M450.48 438.99C450.48 438.99 497.48 439.99 509.48 449.99L503.48 328.99H438.48L450.48 438.99Z"
                    fill="#ABB1D1" />
                <path id="Vector_13"
                    d="M488.24 364.95C488.24 364.95 605.89 360.95 608.29 376.16C610.69 391.37 490.64 384.96 490.64 384.96C490.64 384.96 481.04 375.35 488.24 364.95Z"
                    fill="#535461" />
                <path id="Vector_14" opacity="0.05"
                    d="M488.24 364.95C488.24 364.95 605.89 360.95 608.29 376.16C610.69 391.37 490.64 384.96 490.64 384.96C490.64 384.96 481.04 375.35 488.24 364.95Z"
                    fill="black" />
                <path id="Vector_15" d="M393 425.78H372.19V606.66H393V425.78Z" fill="#ff4d63" />
                <path id="Vector_16" opacity="0.1"
                    d="M393 425.77V439.7C386.08 440.6 379 441.17 372.19 441.39V425.77H393Z" fill="black" />
                <path id="Vector_17"
                    d="M391.44 410.78C388.52 410.554 385.616 410.164 382.74 409.61C371.46 407.45 343.02 402.92 335.37 410.61C325.77 420.21 328.97 437.02 354.58 439.42C380.19 441.82 424.21 435.42 433.02 425.81C433.02 425.77 417.09 412.75 391.44 410.78Z"
                    fill="#535461" />
                <path id="Vector_18" d="M387.4 475.4L605.9 407.37L613.1 424.18L389 501.01L387.4 475.4Z"
                    fill="#ff4d63" />
                <path id="Vector_19" d="M452.23 582.65L609.9 427.38L618.7 440.18L468.23 597.05L452.23 582.65Z"
                    fill="#ff4d63" />
                <path id="Vector_20" opacity="0.1"
                    d="M653.58 529.85C648.584 531.142 643.712 532.872 639.02 535.02L629.46 508.31C634.477 506.123 639.644 504.295 644.92 502.84L653.58 529.85Z"
                    fill="black" />
                <path id="Vector_21"
                    d="M680.33 608.26L669.13 614.66L590.99 396.33L587.49 386.56L605.9 376.15L610.51 390.53L680.33 608.26Z"
                    fill="#ff4d63" />
                <path id="Vector_22" opacity="0.1"
                    d="M610.51 390.53L590.99 396.33L587.49 386.56L605.9 376.15L610.51 390.53Z" fill="black" />
                <path id="Vector_23"
                    d="M491.44 407.37L601.09 369.75C601.09 369.75 620.3 372.15 613.09 388.16L502.65 420.97C502.65 420.97 485.85 422.57 491.44 407.37Z"
                    fill="#535461" />
                <path id="Vector_24" opacity="0.1"
                    d="M367.79 615.86C367.789 621.994 367.314 628.119 366.37 634.18C356.77 633.49 346.85 632.49 337.13 631.49C339.289 619.599 339.021 607.394 336.34 595.61C345.81 593.61 355.48 591.7 364.92 589.97C366.833 598.467 367.795 607.15 367.79 615.86V615.86Z"
                    fill="black" />
                <path id="Vector_25" opacity="0.1"
                    d="M393 585.38V606.65H372.19V588.65C379.39 587.4 386.39 586.29 393 585.38Z" fill="black" />
                <path id="Vector_26"
                    d="M258.54 615.49C258.54 615.49 426.62 571.49 440.22 588.28C453.82 605.07 468.23 627.49 425.85 635.49C383.47 643.49 255.37 621.88 255.37 621.88L258.54 615.49Z"
                    fill="#ff4d63" />
                <path id="Vector_27" opacity="0.1"
                    d="M341.21 541.37L319.85 560.92C316.067 556.064 311.791 551.614 307.09 547.64L327.03 526.81C332.164 531.249 336.908 536.12 341.21 541.37V541.37Z"
                    fill="black" />
                <path id="Vector_28" d="M252.94 606.66L378.59 475.4L382.6 505.81L259.34 618.66L252.94 606.66Z"
                    fill="#ff4d63" />
                <path id="Vector_29" opacity="0.1"
                    d="M251.34 628.27C258.415 628.27 264.15 622.535 264.15 615.46C264.15 608.385 258.415 602.65 251.34 602.65C244.265 602.65 238.53 608.385 238.53 615.46C238.53 622.535 244.265 628.27 251.34 628.27Z"
                    fill="black" />
                <path id="Vector_30"
                    d="M249.73 628.27C256.805 628.27 262.54 622.535 262.54 615.46C262.54 608.385 256.805 602.65 249.73 602.65C242.655 602.65 236.92 608.385 236.92 615.46C236.92 622.535 242.655 628.27 249.73 628.27Z"
                    fill="#535461" />
                <path id="Vector_31" opacity="0.1"
                    d="M675.13 627.07C682.205 627.07 687.94 621.335 687.94 614.26C687.94 607.185 682.205 601.45 675.13 601.45C668.055 601.45 662.32 607.185 662.32 614.26C662.32 621.335 668.055 627.07 675.13 627.07Z"
                    fill="black" />
                <path id="Vector_32"
                    d="M675.93 628.67C683.005 628.67 688.74 622.935 688.74 615.86C688.74 608.785 683.005 603.05 675.93 603.05C668.855 603.05 663.12 608.785 663.12 615.86C663.12 622.935 668.855 628.67 675.93 628.67Z"
                    fill="#535461" />
                <path id="Vector_33" opacity="0.1"
                    d="M448.22 628.27C462.364 628.27 473.83 616.804 473.83 602.66C473.83 588.516 462.364 577.05 448.22 577.05C434.076 577.05 422.61 588.516 422.61 602.66C422.61 616.804 434.076 628.27 448.22 628.27Z"
                    fill="black" />
                <path id="Vector_34"
                    d="M449.83 628.27C463.974 628.27 475.44 616.804 475.44 602.66C475.44 588.516 463.974 577.05 449.83 577.05C435.686 577.05 424.22 588.516 424.22 602.66C424.22 616.804 435.686 628.27 449.83 628.27Z"
                    fill="#535461" />
                <path id="Vector_35"
                    d="M442.992 600.736L442.984 600.742C439.977 602.991 439.362 607.253 441.611 610.26L461.937 637.441C464.186 640.448 468.448 641.063 471.455 638.814L471.463 638.808C474.471 636.559 475.085 632.297 472.836 629.29L452.51 602.109C450.261 599.102 446 598.487 442.992 600.736Z"
                    fill="#ff4d63" />
                <path id="Vector_36"
                    d="M565.48 246.99L563.1 277.1C562.826 280.914 562.876 284.744 563.25 288.55C563.56 291.92 563.25 297.82 559.95 306.82C555.713 318.317 553.523 330.467 553.48 342.72V376.99L530.48 372.99C530.48 372.99 531.48 324.99 527.48 316.99C523.48 308.99 530.48 237.99 530.48 237.99L565.48 246.99Z"
                    fill="#DB8B8B" />
                <path id="Vector_37"
                    d="M451.5 476.99L442.85 526.19C441.759 532.759 440.086 539.218 437.85 545.49C432.78 559.35 436.02 578.78 438.48 589.38C439.57 594.06 440.48 597.02 440.48 597.02L414.48 611.02L406.48 605.02V601.02L405.48 512.02C399.48 498.02 401.48 477.02 405.48 469.02C406.617 466.392 407.417 463.63 407.86 460.8C409.86 450.08 410.48 435.02 410.48 435.02C410.48 435.02 426.48 408.02 445.48 426.02C452.48 432.65 455.14 441.32 455.7 449.62C456.68 463.83 451.5 476.99 451.5 476.99Z"
                    fill="#DB8B8B" />
                <path id="Vector_38" opacity="0.1"
                    d="M455.7 449.59C441.83 457.83 417.7 460.16 407.86 460.77C409.86 450.05 410.48 434.99 410.48 434.99C410.48 434.99 426.48 407.99 445.48 425.99C452.48 432.62 455.14 441.29 455.7 449.59Z"
                    fill="black" />
                <path id="Vector_39"
                    d="M489.48 424.99C478.846 430.653 468.797 437.352 459.48 444.99C443.48 457.99 403.48 458.99 403.48 458.99V443.99C404.48 425.99 387.48 405.99 364.48 349.99C349.79 314.23 353.86 293.99 358.72 283.99C361.48 278.34 364.48 275.99 364.48 275.99L489.48 299.99L493.95 313.39L503.48 341.99C503.48 341.99 468.48 343.99 462.48 346.99C456.48 349.99 460.48 376.99 460.48 376.99C454.48 404.99 489.48 424.99 489.48 424.99Z"
                    fill="#ABB1D1" />
                <path id="Vector_40" opacity="0.1"
                    d="M493.95 313.39C493.48 318.06 493.48 320.99 493.48 320.99C493.48 320.99 470.48 339.99 431.48 310.99C392.48 281.99 357.48 289.99 357.48 289.99C357.48 289.99 357.89 287.67 358.72 283.99C361.48 278.34 364.48 275.99 364.48 275.99L489.48 299.99L493.95 313.39Z"
                    fill="black" />
                <path id="Vector_41"
                    d="M576.48 212C573.87 232.35 573 258 573 258C550 276 532 253 532 253C510.28 258.83 500.07 277.84 495.26 294.43C492.684 303.404 491.252 312.667 491 322C491 322 484.92 327 473.72 328C463.13 328.89 447.95 326.13 429 312C390 283 355 291 355 291C355 291 362 251 378 239C394 227 406 212 426 166C446 120 487 131 487 131C487 131 489 122 526 131C535.012 133.362 543.354 137.781 550.37 143.91C570.16 160.55 579.76 186.36 576.48 212Z"
                    fill="white" />
                <path id="Vector_42"
                    d="M541.85 149.49C541.8 150.82 541.69 152.3 541.51 153.95C539.51 171.95 537.51 169.95 515.51 173.95C501.83 176.44 494.72 165.01 491.3 156.01C490.062 152.75 489.128 149.382 488.51 145.95L536.51 137.95C536.51 137.95 542.26 136.34 541.85 149.49Z"
                    fill="#DB8B8B" />
                <path id="Vector_43"
                    d="M427 223.969L449 276.969C449 276.969 451 292.969 461 301.969C461 301.969 476 317.969 478 326.969C480 335.969 508 359.969 508 359.969C508 359.969 534 383.969 536 392.969C536 392.969 560 399.969 557 413.969C557 413.969 575 395.969 557 378.969C539 361.969 515 326.969 515 326.969C515 326.969 501 289.969 488 278.969L484 267.969C484 267.969 490 235.969 470 220.969C450 205.969 427 223.969 427 223.969Z"
                    fill="#DB8B8B" />
                <path id="Vector_44" opacity="0.1"
                    d="M440.48 596.99L414.48 610.99L406.48 604.99V600.99C415.464 600.352 424.193 597.718 432.03 593.28C434.43 591.92 436.69 590.58 438.5 589.4C439.55 594.03 440.48 596.99 440.48 596.99Z"
                    fill="black" />
                <path id="Vector_45" opacity="0.1"
                    d="M470.48 175.99L484.48 230.99C484.48 230.99 441.48 237.99 432.48 230.99C423.48 223.99 406.48 221.99 406.48 221.99C406.48 221.99 424.48 169.99 434.48 163.99C444.48 157.99 470.48 175.99 470.48 175.99Z"
                    fill="black" />
                <path id="Vector_46"
                    d="M470.48 173.99L484.48 228.99C484.48 228.99 441.48 235.99 432.48 228.99C423.48 221.99 406.48 219.99 406.48 219.99C406.48 219.99 424.48 167.99 434.48 161.99C444.48 155.99 470.48 173.99 470.48 173.99Z"
                    fill="white" />
                <path id="Vector_47" opacity="0.1"
                    d="M541.85 148.49C539.049 152.356 535.487 155.609 531.383 158.047C527.278 160.485 522.718 162.058 517.983 162.669C513.248 163.28 508.439 162.915 503.85 161.598C499.261 160.281 494.99 158.039 491.3 155.01C490.062 151.75 489.128 148.382 488.51 144.95L536.51 136.95C536.51 136.95 542.26 135.34 541.85 148.49Z"
                    fill="black" />
                <path id="Vector_48"
                    d="M548.48 126.99C548.48 136.273 544.793 145.175 538.229 151.739C531.665 158.303 522.763 161.99 513.48 161.99C504.197 161.99 495.295 158.303 488.731 151.739C482.168 145.175 478.48 136.273 478.48 126.99C478.48 126.41 478.48 125.83 478.48 125.25C478.711 115.967 482.62 107.157 489.346 100.756C496.073 94.3555 505.067 90.8893 514.35 91.12C523.633 91.3508 532.443 95.2595 538.844 101.986C545.245 108.713 548.711 117.707 548.48 126.99V126.99Z"
                    fill="#DB8B8B" />
                <path id="Vector_49" d="M482.98 630.49H422.98V649.49H482.98V630.49Z" fill="#ff4d63" />
                <path id="Vector_50"
                    d="M431.99 595.23C437.36 592.23 442.07 589.23 442.48 587.99C442.48 587.99 456.03 602.29 468.1 606.73C472.159 608.229 476.044 610.16 479.69 612.49C484.47 615.49 491.29 619.02 497.48 619.02C497.48 619.02 511.48 631.02 484.48 633.02C457.48 635.02 394.48 628.02 394.48 628.02L398.48 603.02C410.167 603.705 421.804 601 431.99 595.23Z"
                    fill="#ABB1D1" />
                    <path id="Vector_51"
                        d="M452.624 92.9267C454.754 99.6067 464.984 99.8167 470.234 104.737C472.964 107.297 474.234 111.077 477.234 113.357C481.404 116.537 487.424 115.837 492.734 115.077C503.424 113.557 514.904 112.647 524.544 117.257C527.964 118.887 531.034 121.167 534.604 122.497C538.174 123.827 542.604 123.987 545.504 121.627C547.824 119.737 548.674 116.627 550.774 114.547C552.404 112.907 554.674 111.987 556.534 110.547C560.614 107.467 562.374 102.447 563.534 97.6467C565.934 87.7667 566.624 77.1167 562.534 67.7467C558.444 58.3767 548.604 50.7467 537.864 51.2367C534.574 51.3867 531.364 52.2367 528.084 52.5967C519.534 53.4667 511.084 50.5967 502.504 50.1067C500.015 49.8039 497.49 50.1483 495.174 51.1067C493.427 52.0775 491.92 53.4273 490.764 55.0567C486.836 60.2021 484.146 66.1836 482.904 72.5367C481.904 77.3267 481.854 81.6667 475.984 82.4067C469.314 83.2867 448.114 78.7967 452.624 92.9267Z"
                        fill="#ff4d63" /> 
                    
            </g>
        </g>
    </svg>